<?xml version="1.0" encoding="utf-8"?>
<!-- Generator: Adobe Illustrator 23.0.6, SVG Export Plug-In . SVG Version: 6.00 Build 0)  -->
<svg version="1.1" id="Layer_1" xmlns="http://www.w3.org/2000/svg" xmlns:xlink="http://www.w3.org/1999/xlink" x="0px" y="0px"
	 viewBox="0 0 699 241" enable-background="new 0 0 699 241" xml:space="preserve">
<title>3 pigs</title>
<desc>Created with Sketch.</desc>
<g id="Latest">
	<g transform="translate(-328.000000, -517.000000)">
		<g transform="translate(328.000000, 517.000000)">
			<rect id="white-rect" fill-rule="evenodd" clip-rule="evenodd" fill="#FFFFFF" width="699" height="241"/>
			<g enable-background="new    ">
				<path fill="#366378" d="M91.371,164.007l-0.874,2.3c-1.541-0.644-3.127-0.781-4.254-0.781c-1.426,0-2.323,0.689-2.323,2.023
					c0,1.219,1.518,1.609,3.15,2c2.162,0.552,5.289,1.219,5.289,4.967c0,2.989-2.23,4.714-6.646,4.714
					c-1.609,0-3.932-0.321-5.771-1.265l0.874-2.391c2.23,0.896,4.093,1.034,5.151,1.034c1.863,0,2.829-0.575,2.829-2.093
					c0-1.333-1.058-1.725-2.599-2.139c-3.104-0.781-5.84-1.448-5.84-4.69c0-2.874,2.023-4.806,6.001-4.806
					C87.922,162.881,89.831,163.156,91.371,164.007z"/>
				<path fill="#366378" d="M97.744,168.744c1.104-0.896,2.369-1.265,3.403-1.265c3.495,0,4.461,2.599,4.461,5.771
					c0,3.335-1.288,5.956-4.829,5.956c-0.759,0-2.115-0.138-3.035-0.667v5.266h-3.265v-16.119h3.081l0.069,0.966L97.744,168.744z
					 M102.32,173.113c0-2.645-0.989-3.242-2.23-3.242c-0.713,0-1.817,0.46-2.323,0.874v5.519c0.506,0.322,1.495,0.621,2.253,0.621
					C101.17,176.885,102.32,176.057,102.32,173.113z"/>
				<path fill="#366378" d="M118.166,172.976v1.173h-7.381c0,1.725,0.805,2.598,2.829,2.598c1.219,0,2.46-0.275,3.633-0.713
					l0.667,2.024c-1.495,0.827-3.219,1.126-4.783,1.126c-4.553,0-5.657-2.667-5.657-5.771c0-2.483,1.058-5.956,5.519-5.956
					C117.844,167.456,118.166,170.952,118.166,172.976z M110.831,172.124h4.346c-0.023-1.494-0.483-2.575-2.046-2.575
					C111.498,169.549,110.946,170.768,110.831,172.124z"/>
				<path fill="#366378" d="M127.688,179v-6.99c0-1.173-0.184-2.023-1.609-2.023c-0.759,0-1.817,0.391-2.576,0.851V179h-3.311
					v-11.313h3.104l0.069,1.058l0.092,0.046c1.311-0.874,2.897-1.356,3.978-1.356c2.989,0,3.542,1.771,3.542,3.886V179H127.688z"/>
				<path fill="#366378" d="M140.913,168.169v-5.61h3.288V179h-3.012l-0.115-1.012c-0.023-0.023-0.046-0.046-0.069-0.046
					c-1.104,0.896-2.506,1.219-3.472,1.219c-3.518,0-4.484-2.553-4.484-5.542c0-3.495,1.288-6.163,4.875-6.163
					C138.66,167.456,139.97,167.617,140.913,168.169z M140.913,170.469c-0.529-0.322-1.541-0.621-2.277-0.621
					c-1.126,0-2.276,0.667-2.276,3.748c0,2.668,0.989,3.266,2.23,3.266c0.667,0,1.794-0.46,2.323-0.851V170.469z"/>
				<path fill="#366378" d="M148.78,166.307c-1.219,0-1.886-0.781-1.886-1.747c0-1.013,0.69-1.771,1.886-1.771
					c1.265,0,1.955,0.759,1.955,1.771C150.735,165.525,150.045,166.307,148.78,166.307z M147.147,179v-11.313h3.289V179H147.147z"/>
				<path fill="#366378" d="M160.877,179v-6.99c0-1.173-0.184-2.023-1.609-2.023c-0.759,0-1.817,0.391-2.576,0.851V179h-3.311
					v-11.313h3.104l0.069,1.058l0.092,0.046c1.311-0.874,2.897-1.356,3.978-1.356c2.989,0,3.542,1.771,3.542,3.886V179H160.877z"/>
				<path fill="#366378" d="M173.895,167.732l4.047-0.276v1.84h-1.793l-0.069,0.092c0.368,0.506,0.529,1.265,0.529,1.909
					c0,2.253-2.116,3.633-4.806,3.633h-1.379c-1.081,0-1.518,0.483-1.518,0.966c0,0.414,0.368,0.713,1.058,0.713h3.932
					c2.345,0,3.886,1.058,3.886,3.059c0,2.185-2.116,4.369-6.554,4.369c-4.392,0-5.312-1.955-5.312-3.174
					c0-1.012,0.759-2.046,1.656-2.414c-2.299-0.782-1.863-3.979,0.552-4.393v-0.114c-0.689-0.438-1.219-1.288-1.219-2.529
					c0-2.76,2.346-3.956,4.783-3.956C172.492,167.456,173.296,167.549,173.895,167.732z M170.1,178.771
					c-0.529,0.184-1.012,0.781-1.012,1.402c0,0.667,0.414,1.563,2.369,1.563c2,0,2.875-0.851,2.875-1.747
					c0-0.713-0.322-1.219-1.886-1.219H170.1z M171.756,169.71c-1.081,0-1.563,0.805-1.563,1.563c0,0.851,0.506,1.563,1.472,1.563
					c0.92,0,1.656-0.574,1.656-1.563C173.32,170.492,172.86,169.71,171.756,169.71z"/>
			</g>
			<g enable-background="new    ">
				<path fill="#BB3542" d="M331.371,168.007l-0.874,2.3c-1.541-0.644-3.127-0.781-4.254-0.781c-1.426,0-2.323,0.689-2.323,2.023
					c0,1.219,1.518,1.609,3.15,2c2.162,0.552,5.289,1.219,5.289,4.967c0,2.989-2.23,4.714-6.646,4.714
					c-1.609,0-3.932-0.321-5.771-1.265l0.874-2.391c2.23,0.896,4.093,1.034,5.151,1.034c1.863,0,2.829-0.575,2.829-2.093
					c0-1.333-1.058-1.725-2.599-2.139c-3.104-0.781-5.84-1.448-5.84-4.69c0-2.874,2.023-4.806,6.001-4.806
					C327.922,166.881,329.831,167.156,331.371,168.007z"/>
				<path fill="#BB3542" d="M344.458,183h-2.92l-0.115-1.127c0-0.022-0.023-0.022-0.046-0.046c-1.587,1.38-3.173,1.402-3.817,1.402
					c-2.805,0-3.495-1.978-3.495-3.288c0-2.346,1.816-3.495,4.185-3.633c0.874-0.069,2.208-0.115,3.082-0.185v-0.275
					c0-1.288-0.414-1.955-2.093-1.955c-1.104,0-2.529,0.23-3.587,0.575c-0.161-0.689-0.345-1.38-0.529-2.047
					c1.334-0.574,3.289-0.942,4.898-0.942c2.713,0,4.438,1.012,4.438,3.933V183z M339.054,178.125
					c-1.081,0.092-1.586,0.644-1.586,1.541c0,0.942,0.46,1.448,1.541,1.448c0.69,0,1.587-0.368,2.323-1.012v-2.161L339.054,178.125z
					"/>
				<path fill="#BB3542" d="M352.232,180.815c0.115-0.299,0.736-2.92,1.104-4.093c0.506-1.472,1.448-4.714,1.563-5.036h3.312
					c-0.828,2.322-3.059,9.014-3.886,11.313h-4.484c-0.805-2.3-3.059-8.991-3.863-11.313h3.449l1.633,5.266
					c0.253,0.805,0.781,3.081,1.058,3.863H352.232z"/>
				<path fill="#BB3542" d="M361.848,170.307c-1.219,0-1.886-0.781-1.886-1.747c0-1.013,0.69-1.771,1.886-1.771
					c1.265,0,1.955,0.759,1.955,1.771C363.803,169.525,363.112,170.307,361.848,170.307z M360.215,183v-11.313h3.289V183H360.215z"
					/>
				<path fill="#BB3542" d="M373.944,183v-6.99c0-1.173-0.185-2.023-1.609-2.023c-0.759,0-1.817,0.391-2.575,0.851V183h-3.312
					v-11.313h3.104l0.068,1.058l0.092,0.046c1.311-0.874,2.898-1.356,3.979-1.356c2.989,0,3.541,1.771,3.541,3.886V183H373.944z"/>
				<path fill="#BB3542" d="M386.962,171.732l4.047-0.276v1.84h-1.794l-0.068,0.092c0.367,0.506,0.529,1.265,0.529,1.909
					c0,2.253-2.116,3.633-4.807,3.633h-1.379c-1.082,0-1.518,0.483-1.518,0.966c0,0.414,0.367,0.713,1.057,0.713h3.933
					c2.345,0,3.886,1.058,3.886,3.059c0,2.185-2.115,4.369-6.553,4.369c-4.393,0-5.312-1.955-5.312-3.174
					c0-1.012,0.759-2.046,1.656-2.414c-2.3-0.782-1.863-3.979,0.551-4.393v-0.114c-0.689-0.438-1.219-1.288-1.219-2.529
					c0-2.76,2.346-3.956,4.783-3.956C385.559,171.456,386.363,171.549,386.962,171.732z M383.168,182.771
					c-0.529,0.184-1.012,0.781-1.012,1.402c0,0.667,0.414,1.563,2.368,1.563c2.001,0,2.874-0.851,2.874-1.747
					c0-0.713-0.322-1.219-1.885-1.219H383.168z M384.823,173.71c-1.081,0-1.563,0.805-1.563,1.563c0,0.851,0.506,1.563,1.472,1.563
					c0.92,0,1.655-0.574,1.655-1.563C386.387,174.492,385.928,173.71,384.823,173.71z"/>
			</g>
			<g enable-background="new    ">
				<path fill="#748037" d="M553.371,168.007l-0.873,2.3c-1.541-0.644-3.128-0.781-4.254-0.781c-1.426,0-2.323,0.689-2.323,2.023
					c0,1.219,1.518,1.609,3.15,2c2.161,0.552,5.288,1.219,5.288,4.967c0,2.989-2.23,4.714-6.645,4.714
					c-1.609,0-3.933-0.321-5.771-1.265l0.873-2.391c2.23,0.896,4.094,1.034,5.15,1.034c1.863,0,2.829-0.575,2.829-2.093
					c0-1.333-1.058-1.725-2.599-2.139c-3.104-0.781-5.84-1.448-5.84-4.69c0-2.874,2.023-4.806,6.001-4.806
					C549.922,166.881,551.83,167.156,553.371,168.007z"/>
				<path fill="#748037" d="M559.812,172.744c1.265-0.759,2.828-1.288,3.887-1.288c3.059,0,3.541,1.771,3.541,3.887V183h-3.289
					v-6.968c0-1.149-0.137-2.023-1.609-2.023c-0.759,0-1.816,0.391-2.575,0.851V183h-3.312v-16.441h3.242v3.679l-0.068,2.415
					L559.812,172.744z"/>
				<path fill="#748037" d="M579.545,183h-2.92l-0.115-1.127c0-0.022-0.023-0.022-0.046-0.046c-1.587,1.38-3.173,1.402-3.817,1.402
					c-2.805,0-3.495-1.978-3.495-3.288c0-2.346,1.816-3.495,4.185-3.633c0.875-0.069,2.208-0.115,3.082-0.185v-0.275
					c0-1.288-0.414-1.955-2.093-1.955c-1.104,0-2.529,0.23-3.587,0.575c-0.161-0.689-0.346-1.38-0.529-2.047
					c1.334-0.574,3.289-0.942,4.898-0.942c2.713,0,4.438,1.012,4.438,3.933V183z M574.141,178.125
					c-1.08,0.092-1.586,0.644-1.586,1.541c0,0.942,0.46,1.448,1.541,1.448c0.689,0,1.586-0.368,2.322-1.012v-2.161L574.141,178.125z
					"/>
				<path fill="#748037" d="M585.595,174.146c1.081-2.207,2.736-2.713,4.369-2.713v2.943c-1.472,0.022-3.081,0.552-4.415,2.322V183
					h-3.288v-11.313h3.127l0.093,2.414L585.595,174.146z"/>
				<path fill="#748037" d="M593.484,170.307c-1.219,0-1.887-0.781-1.887-1.747c0-1.013,0.69-1.771,1.887-1.771
					c1.264,0,1.954,0.759,1.954,1.771C595.438,169.525,594.748,170.307,593.484,170.307z M591.852,183v-11.313h3.288V183H591.852z"
					/>
				<path fill="#748037" d="M605.58,183v-6.99c0-1.173-0.184-2.023-1.609-2.023c-0.759,0-1.816,0.391-2.575,0.851V183h-3.312
					v-11.313h3.104l0.069,1.058l0.092,0.046c1.311-0.874,2.897-1.356,3.979-1.356c2.988,0,3.541,1.771,3.541,3.886V183H605.58z"/>
				<path fill="#748037" d="M618.599,171.732l4.047-0.276v1.84h-1.794l-0.068,0.092c0.367,0.506,0.529,1.265,0.529,1.909
					c0,2.253-2.116,3.633-4.807,3.633h-1.379c-1.082,0-1.518,0.483-1.518,0.966c0,0.414,0.367,0.713,1.057,0.713h3.933
					c2.345,0,3.886,1.058,3.886,3.059c0,2.185-2.115,4.369-6.553,4.369c-4.393,0-5.312-1.955-5.312-3.174
					c0-1.012,0.759-2.046,1.656-2.414c-2.3-0.782-1.863-3.979,0.551-4.393v-0.114c-0.689-0.438-1.219-1.288-1.219-2.529
					c0-2.76,2.346-3.956,4.783-3.956C617.195,171.456,618,171.549,618.599,171.732z M614.805,182.771
					c-0.529,0.184-1.012,0.781-1.012,1.402c0,0.667,0.414,1.563,2.368,1.563c2.001,0,2.874-0.851,2.874-1.747
					c0-0.713-0.322-1.219-1.885-1.219H614.805z M616.46,173.71c-1.081,0-1.563,0.805-1.563,1.563c0,0.851,0.506,1.563,1.472,1.563
					c0.92,0,1.655-0.574,1.655-1.563C618.023,174.492,617.564,173.71,616.46,173.71z"/>
			</g>
			<g id="Group-3" transform="translate(79.000000, 48.000000)">
				<path id="Path" fill="#E1E1E1" d="M48.6,88.4c26.8,0,48.6-2,48.6-4.5s-21.7-4.5-48.6-4.5c-26.8,0-48.6,2-48.6,4.5
					C0.1,86.4,21.8,88.4,48.6,88.4"/>
				<path fill="#F47893" d="M64.2,84.1c0,0,13.9,1.3,13.9-4.8V65.6c0-0.8-0.6-1.4-1.4-1.4h-15c-0.8,0-1.4,0.6-1.4,1.4
					C60.2,65.6,60.2,84.1,64.2,84.1"/>
				<path fill="#F47893" d="M37.9,82.8c0,0.8-0.6,1.4-1.4,1.4c0,0-13.9,1.3-13.9-4.8V65.7c0-0.8,0.6-1.4,1.4-1.4h15
					c0.8,0,1.4,0.6,1.4,1.4L37.9,82.8z"/>
				<path fill="#F47893" d="M74.5,28.8c0,0,7.2-3.8,10.1-2.7s1.1,11,0.4,11.6L74.5,28.8z"/>
				<path fill="#FF7AAA" d="M74.2,28.3c0,0,1.4-0.7,3.2-1.5c0.9-0.4,1.9-0.7,2.9-1c1-0.3,2-0.5,3-0.5c0.5,0,1.1,0.1,1.5,0.2
					c0.2,0.1,0.4,0.2,0.6,0.3c0.3,0.2,0.5,0.6,0.7,0.9c0.3,0.5,0.4,1.1,0.5,1.8s0.1,1.4,0.1,2.1c0,1.6-0.2,3.3-0.5,4.6
					c-0.1,0.7-0.3,1.3-0.4,1.7c-0.1,0.2-0.1,0.4-0.2,0.6c0,0.1-0.1,0.2-0.1,0.2c0,0.1-0.1,0.1-0.2,0.2L84.5,37l0.2,0.2L84.5,37l0,0
					l0.2,0.2L84.5,37h0.1h-0.1l0,0h0.1h-0.1c0,0,0,0,0-0.1c0-0.1,0.1-0.2,0.1-0.4c0.1-0.3,0.2-0.7,0.3-1.1c0.3-1.4,0.6-3.3,0.6-5.1
					c0-0.5,0-1-0.1-1.5c-0.1-0.7-0.2-1.3-0.4-1.7c-0.1-0.2-0.2-0.4-0.3-0.5c-0.1-0.1-0.2-0.2-0.4-0.3c-0.3-0.1-0.7-0.2-1.1-0.2
					c-0.8,0-1.7,0.2-2.6,0.4c-1.4,0.4-2.9,1-4,1.5c-0.6,0.3-1,0.5-1.4,0.6c-0.2,0.1-0.3,0.1-0.4,0.2c0,0-0.1,0-0.1,0.1l0,0l0,0
					L74.2,28.3z"/>
				<path fill="#C66B81" d="M82.4,36.2c0,0,2.7-5.1,1.9-7.1c-0.8-2.1-7.7-0.7-8.2-0.3c0,0,3.2,1,4.2,2.4
					C81.8,33.3,82.4,36.2,82.4,36.2"/>
				<path fill="#DD708B" d="M76.3,76.5v1.3c0,2.4-2.1,3.6-4.7,4.3v-4C73.2,77.5,74.8,77,76.3,76.5"/>
				<path fill="#DD708B" d="M30.1,79.7c2,0.3,4.1,0.5,6.2,0.6l-0.1,0.9c0,0.8-0.6,1.4-1.4,1.4c0,0-1.2,0.1-2.9,0.1
					c-0.7,0-1.4,0-2.2-0.1L30.1,79.7z"/>
				<path fill="#F47893" d="M90.3,40c-5.2-12.1-20.8-19-39.1-19C32,21,16,26.8,11.5,44.4c-0.4-0.7-1.2-0.9-1.9-0.5l-3.1,1.7
					C6,45.9,5.7,46.5,5.8,47l-0.2-0.4c-0.2-0.4-0.6-0.5-1-0.3L3,47.1c-0.4,0.2-0.5,0.6-0.3,1L4,50.8c0.2,0.4,0.6,0.5,1,0.3l1.6-0.8
					c0.3-0.2,0.5-0.5,0.4-0.9l1.8,3.4c0.3,0.6,1,0.9,1.6,0.7c0,0.6,0,1.1,0,1.7c0,5.2,0.5,11.6,3.5,16v12.2c0,6.1,13.9,4.8,13.9,4.8
					c0.8,0,1.4-0.6,1.4-1.4l1-7.2c6.4,1,13.7,0.9,21.1,0.9c1.1,0,2.1,0,3.2-0.1c0.5,4.1,1.5,7.8,3.3,7.8c0,0,13.9,1.3,13.9-4.8V78
					c3.6-1,6.9-2.2,9.5-3.8c9.1-5.5,11.1-14.1,11.1-23.3C92.2,47.8,91.5,42.8,90.3,40L42.5,0"/>
				<path fill="#C66B81" d="M64.1,40.9c0,0-3.8-7.2-2.7-10.1c1.1-2.9,11-1.1,11.6-0.4L64.1,40.9z"/>
				<path fill="#F47893" d="M65.5,40.9c0,0-3.8-7.2-2.7-10.1c1.1-2.9,11-1.1,11.6-0.4L65.5,40.9z"/>
				<path fill="#C66B81" d="M66.5,39.1c0,0-2.7-5.1-1.9-7.1c0.8-2.1,7.7-0.7,8.2-0.3c0,0-3.2,1-4.2,2.4
					C67.1,36.3,66.5,39.1,66.5,39.1"/>
				<path fill="#C66B81" d="M80.5,45.3c0,2.9-1.1,5.3-2.4,5.3c-1.3,0-2.4-2.4-2.4-5.3c0-2.9,1.1-5.3,2.4-5.3
					C79.4,40,80.5,42.4,80.5,45.3"/>
				<path fill="#F490A7" d="M50.2,21.7c1.2,0,2.3,0,3.5,0.1c1.3,0.1,2.6,0.2,3.8,0.4c1.3,0.2,2.5,0.4,3.7,0.6
					c0.3,0.1,0.6,0.1,0.9,0.2c0.3,0.1,0.6,0.1,0.9,0.2c0.3,0.1,0.6,0.2,0.9,0.2c0.3,0.1,0.6,0.1,0.9,0.2c2.3,0.7,4.6,1.5,6.6,2.4
					s3.9,2,5.5,3c1.6,1.1,3,2.1,4.2,3.2c0.3,0.3,0.6,0.5,0.8,0.8c0.1,0.1,0.3,0.2,0.4,0.4c0.1,0.1,0.2,0.2,0.4,0.4
					c0.2,0.2,0.5,0.5,0.7,0.7c0.2,0.2,0.4,0.4,0.6,0.7c0.4,0.4,0.7,0.8,1,1.1c0.1,0.2,0.3,0.3,0.4,0.5c0.1,0.1,0.2,0.3,0.3,0.4
					c0.2,0.2,0.3,0.4,0.4,0.5c0.1,0.1,0.1,0.2,0.1,0.2s-0.1,0-0.2-0.1c-0.1-0.1-0.3-0.2-0.6-0.4c-0.1-0.1-0.3-0.2-0.4-0.3
					c-0.1-0.1-0.3-0.2-0.5-0.3c-0.4-0.2-0.7-0.5-1.2-0.8c-0.2-0.1-0.5-0.3-0.7-0.5c-0.3-0.2-0.5-0.3-0.8-0.5
					c-0.1-0.1-0.3-0.2-0.4-0.3c-0.1-0.1-0.3-0.2-0.4-0.3c-0.3-0.2-0.6-0.4-0.9-0.5c-0.3-0.2-0.7-0.4-1-0.6c-0.4-0.2-0.7-0.4-1.1-0.6
					c-0.7-0.4-1.5-0.7-2.4-1.1c-0.5-0.2-1.1-0.5-1.7-0.7l0.5-0.6c-0.3-0.3-2.8-0.9-5.4-1.1c-1.6-0.5-3.4-0.9-5.2-1.3
					c-2.2-0.4-4.5-0.8-6.8-1c-0.3,0-0.6-0.1-0.9-0.1c-0.3,0-0.6-0.1-0.9-0.1c-0.6,0-1.2-0.1-1.8-0.1c-0.6,0-1.2,0-1.8-0.1
					c-0.2,0-0.4,0-0.5,0l0,0c-0.1,0-0.2,0-0.3,0c-0.2,0-0.3,0-0.5,0c-0.1,0-0.3,0-0.4,0H49c-0.3,0-0.6,0-0.9,0
					c-0.6,0-1.2,0.1-1.8,0.1c-1.2,0.1-2.4,0.2-3.5,0.3c-1.2,0.1-2.3,0.3-3.5,0.5c-1.1,0.2-2.3,0.4-3.4,0.6c-1.1,0.2-2.2,0.5-3.2,0.8
					c-1,0.3-2,0.6-3,0.9c-1,0.3-1.9,0.7-2.8,1.1c-0.5,0.2-0.9,0.4-1.3,0.6c-0.2,0.1-0.4,0.2-0.6,0.3c-0.1,0.1-0.2,0.1-0.3,0.1
					c-0.1,0.1-0.2,0.1-0.3,0.2c-0.2,0.1-0.4,0.2-0.6,0.3c-0.2,0.1-0.4,0.2-0.6,0.3c-0.1,0.1-0.2,0.1-0.3,0.2
					c-0.1,0.1-0.2,0.1-0.3,0.2c-0.2,0.1-0.4,0.2-0.5,0.3c-0.2,0.1-0.3,0.2-0.5,0.3c-0.2,0.1-0.3,0.2-0.5,0.3
					c-0.3,0.2-0.6,0.4-0.9,0.7c-1.2,0.9-2.1,1.8-2.8,2.6c-0.3,0.4-0.6,0.8-0.9,1.1c-0.1,0.1-0.1,0.2-0.2,0.2
					c-0.1,0.1-0.1,0.2-0.2,0.2c-0.1,0.1-0.2,0.3-0.3,0.4c-0.2,0.3-0.3,0.5-0.3,0.6c-0.1,0.1-0.1,0.2-0.1,0.2s0-0.1,0-0.2
					c0-0.1,0-0.2,0.1-0.3c0-0.1,0-0.2,0.1-0.4c0-0.1,0.1-0.3,0.1-0.5c0-0.1,0.1-0.2,0.1-0.3c0-0.1,0.1-0.2,0.1-0.3
					c0.1-0.4,0.3-0.9,0.6-1.4c0.5-1,1.3-2.2,2.3-3.4c0.5-0.6,1.1-1.2,1.8-1.8c0.3-0.3,0.7-0.6,1-0.9c0.2-0.1,0.4-0.3,0.6-0.4
					c0.2-0.1,0.4-0.3,0.6-0.4c0.1-0.1,0.2-0.1,0.3-0.2s0.2-0.1,0.3-0.2c0.2-0.1,0.4-0.3,0.6-0.4c0.4-0.3,0.9-0.6,1.3-0.8
					c0.2-0.1,0.5-0.3,0.7-0.4s0.5-0.3,0.7-0.4c0.2-0.1,0.5-0.3,0.7-0.4c0.2-0.1,0.5-0.3,0.7-0.4c0.3-0.1,0.5-0.2,0.8-0.4
					c0.3-0.1,0.5-0.2,0.8-0.3c0.5-0.2,1.1-0.4,1.6-0.7c0.3-0.1,0.6-0.2,0.8-0.3c0.1-0.1,0.3-0.1,0.4-0.2c0.1,0,0.3-0.1,0.4-0.1
					c0.3-0.1,0.6-0.2,0.9-0.3s0.6-0.2,0.9-0.3c0.3-0.1,0.6-0.2,0.9-0.3c0.3-0.1,0.6-0.2,0.9-0.2c0.6-0.1,1.2-0.3,1.8-0.4
					c0.6-0.1,1.2-0.3,1.9-0.4c0.3-0.1,0.6-0.1,0.9-0.2c0.3-0.1,0.6-0.1,0.9-0.1s0.6-0.1,0.9-0.1c0.3,0,0.6-0.1,1-0.1
					c0.6-0.1,1.3-0.1,1.9-0.2c1.3-0.1,2.6-0.2,3.9-0.2C49.9,21.7,50.1,21.7,50.2,21.7"/>
				<path fill="#F490A7" d="M69,29.2c2.6,0.2,5.1,0.8,5.4,1.1l-0.5,0.6c-1.2-0.5-2.5-0.9-3.8-1.3C69.7,29.4,69.4,29.3,69,29.2"/>
				<polyline fill="#F4DFE5" points="10.2,53.5 10.2,53.6 10.2,53.5 				"/>
				<path fill="#EA7590" d="M10.2,53.6C10.7,55.3,24,74,69.8,74c3.9,0,8-0.1,12.3-0.4c-2.5,1.5-6.9,3.4-10.5,4.4
					c0,0-19.4,2.7-20.4,2.7s-2,0-3.1,0c-6.4,0-12.6-0.1-18.1-0.9l-16.3-8.6c-3-4.4-3.5-10.8-3.5-16C10.2,54.7,10.2,54.2,10.2,53.6"
					/>
				<path fill="#C66B81" d="M91.4,45.3c0,2.9-1.1,5.3-2.4,5.3s-2.4-2.4-2.4-5.3c0-2.9,1.1-5.3,2.4-5.3S91.4,42.4,91.4,45.3"/>
				<path fill="#F47893" d="M71.4,71.7c5.9,0.3,25,3.5,27.6-6.6c3.1-17.3-4.2-15.9-4.2-15.9h-7.6L85.8,48L71.4,71.7z"/>
				<path fill="#C66B81" d="M71.4,71.2c3.5,0.2,6.9,0.6,10.3,0.7c4,0.1,8.4,0,12.1-1.8c1.6-0.7,3-1.8,3.9-3.4c0.6-1,0.8-2.1,1-3.3
					c0.2-1.5,0.4-3,0.5-4.6c0.1-2.7,0.1-6.7-2.2-8.6c0,0-0.3-0.2-0.4-0.3c-0.1,0-0.1-0.1-0.2-0.1c-0.2-0.1-0.1,0-0.2-0.1
					c-0.1-0.1-0.3-0.1-0.4-0.1c-0.1,0-0.1,0-0.2,0s-0.2,0-0.1,0c-0.2,0-0.4,0-0.6,0c-0.3,0,0.2,0-0.2,0h-4.4h-2.5
					c-0.5,0-0.8,0.1-1.2-0.3c-0.4-0.4-0.8-0.7-1.2-1.1c-0.5-0.5,0.2-1.2,0.8-0.8c0.4,0.4,0.9,0.8,1.4,1.2c-0.1-0.1-0.3-0.1-0.4-0.2
					h4h2.6h0.7c0.1,0,0.3,0,0.1,0c1.1-0.2,2.3,0.3,3.1,1c2.3,1.9,2.5,5.7,2.5,8.5c0,1.4-0.2,2.9-0.3,4.3c-0.2,1.3-0.3,2.7-0.8,4
					c-0.7,1.7-1.9,3-3.5,4c-3.4,2.2-7.8,2.5-11.7,2.6c-3.8,0.1-7.5-0.3-11.3-0.6c-0.4,0-0.8-0.1-1.3-0.1
					C70.7,72.2,70.7,71.1,71.4,71.2"/>
				<path fill="#C66B81" d="M95.7,60.6c0,1.7-0.6,3.1-1.4,3.1c-0.8,0-1.4-1.4-1.4-3.1c0-1.7,0.6-3.1,1.4-3.1
					C95.1,57.5,95.7,58.9,95.7,60.6"/>
				<path fill="#C66B81" d="M99.2,59.2c0,1.7-0.6,3.1-1.4,3.1c-0.8,0-1.4-1.4-1.4-3.1s0.6-3.1,1.4-3.1
					C98.6,56.1,99.2,57.5,99.2,59.2"/>
				<path fill="#C66B81" d="M74.1,66.4c0.1,1.2-0.2,2.5-0.7,3.5c-1.3,2.5-4.4,3.1-7,3.1c0,0-0.5,0-0.2-0.1c0.3-0.1,0.5-0.1,0.8-0.1
					c2.3,0,4.5-1.1,5.4-3.3c0.4-0.9,0.6-2,0.5-3C72.9,66.4,74.1,66.2,74.1,66.4"/>
				<path fill="#C66B81" d="M96.3,50.2c-1-0.3-2.1-0.3-3.1-0.1c-2.5,0.6-3.1,3.5-3.3,5.8c0,0.3-1,0.7-1,0.5c0.1-1.7,0.4-3.4,1.5-4.7
					c0.7-1,1.8-1.7,3-2.1c1.2-0.4,2.7-0.4,3.9-0.1C97.3,49.6,96.6,50.3,96.3,50.2"/>
				<path fill="#DD708B" d="M10.2,43.8c0.7,0.2,1.2,0.7,1.2,0.7s-1.3,3.6-1.2,9.1C9,53.2,8.7,49.5,10.2,43.8"/>
				<path fill="#C66B81" d="M26.7,30.9c0,0,14.4-5.4,27-3.5c2-2.4,5.2-3.7,5.2-3.7S47.8,21.1,31.8,26C30.7,26.1,26.7,30.9,26.7,30.9
					"/>
				<path fill="#D0C8BE" d="M35,17.2c-0.2-3.2,2.9-6.1,7-6.4s7.6,2.1,7.8,5.3s-2.9,6.1-7,6.4S35.2,20.4,35,17.2"/>
				<path id="Shape" fill="#638E63" d="M42.8,22.5c4.1-0.3,7.2-3.1,7-6.4c-0.2-3.2-3.7-5.6-7.8-5.3s-7.2,3.1-7,6.4
					C35.2,20.4,38.7,22.8,42.8,22.5L42.8,22.5z M51.5,25.8c0,0-4.9-0.3-8.4,0.1c-3.6,0.4-7.8,1.1-7.8,1.1L33.5,1.2l16.2-1.1
					L51.5,25.8z"/>
				<path fill="#638E63" d="M36.1,17.7L36,16.6l1.5-0.1c0-0.8,0.1-1.7,0.6-2.6l1.5,0.4c-0.5,1.2-0.5,1.8-0.4,2.3
					c0.1,1,0.5,1.5,1.3,1.4c2-0.1,1-4.2,4-4.4c1.4-0.1,2.6,0.6,3,2.2l1.4-0.1l0.1,1.1l-1.3,0.1c0,0.5-0.1,1.4-0.4,2.1l-1.5-0.4
					c0.2-0.5,0.3-1.2,0.3-1.8C46,16,45.7,15.5,45,15.5c-1.7,0.1-0.8,4.3-4.1,4.5c-1.5,0.1-2.7-0.7-3.1-2.4L36.1,17.7z"/>
				<path fill="#F490A7" d="M84.5,49.7c0.1,0,0.1,0,0.2,0L84,50.8c-0.6,0-1.2,0.1-1.7,0.3c-0.1,0-0.1,0-0.2,0
					c-0.2,0-0.4-0.1-0.5-0.4s0.1-0.6,0.3-0.7C82.8,49.8,83.6,49.7,84.5,49.7"/>
				<path fill="#F490A7" d="M84.7,49.7c1.5,0,3,0.3,4.4,0.7c0.3,0.1,0.4,0.4,0.4,0.7c-0.1,0.2-0.3,0.4-0.5,0.4h-0.1
					c-1.4-0.4-3-0.7-4.4-0.7l0,0l0,0c-0.1,0-0.3,0-0.4,0L84.7,49.7z"/>
			</g>
			<g transform="translate(305.000000, 52.000000)">
				<path fill="#E1E1E1" d="M48.6,88.4c26.8,0,48.6-2,48.6-4.5s-21.7-4.5-48.6-4.5c-26.8,0-48.6,2-48.6,4.5
					C0.1,86.4,21.8,88.4,48.6,88.4"/>
				<path fill="#F47893" d="M64.2,84.1c0,0,13.9,1.3,13.9-4.8V65.6c0-0.8-0.6-1.4-1.4-1.4h-15c-0.8,0-1.4,0.6-1.4,1.4
					C60.2,65.6,60.2,84.1,64.2,84.1"/>
				<path fill="#F47893" d="M37.9,82.8c0,0.8-0.6,1.4-1.4,1.4c0,0-13.9,1.3-13.9-4.8V65.7c0-0.8,0.6-1.4,1.4-1.4h15
					c0.8,0,1.4,0.6,1.4,1.4L37.9,82.8z"/>
				<path fill="#F47893" d="M74.5,28.8c0,0,7.2-3.8,10.1-2.7s1.1,11,0.4,11.6L74.5,28.8z"/>
				<path fill="#FF7AAA" d="M74.2,28.3c0,0,1.4-0.7,3.2-1.5c0.9-0.4,1.9-0.7,2.9-1c1-0.3,2-0.5,3-0.5c0.5,0,1.1,0.1,1.5,0.2
					c0.2,0.1,0.4,0.2,0.6,0.3c0.3,0.2,0.5,0.6,0.7,0.9c0.3,0.5,0.4,1.1,0.5,1.8s0.1,1.4,0.1,2.1c0,1.6-0.2,3.3-0.5,4.6
					c-0.1,0.7-0.3,1.3-0.4,1.7c-0.1,0.2-0.1,0.4-0.2,0.6c0,0.1-0.1,0.2-0.1,0.2c0,0.1-0.1,0.1-0.2,0.2L84.5,37l0.2,0.2L84.5,37l0,0
					l0.2,0.2L84.5,37h0.1h-0.1l0,0h0.1h-0.1c0,0,0,0,0-0.1c0-0.1,0.1-0.2,0.1-0.4c0.1-0.3,0.2-0.7,0.3-1.1c0.3-1.4,0.6-3.3,0.6-5.1
					c0-0.5,0-1-0.1-1.5c-0.1-0.7-0.2-1.3-0.4-1.7c-0.1-0.2-0.2-0.4-0.3-0.5c-0.1-0.1-0.2-0.2-0.4-0.3c-0.3-0.1-0.7-0.2-1.1-0.2
					c-0.8,0-1.7,0.2-2.6,0.4c-1.4,0.4-2.9,1-4,1.5c-0.6,0.3-1,0.5-1.4,0.6c-0.2,0.1-0.3,0.1-0.4,0.2c0,0-0.1,0-0.1,0.1l0,0l0,0
					L74.2,28.3z"/>
				<path fill="#C66B81" d="M82.4,36.2c0,0,2.7-5.1,1.9-7.1c-0.8-2.1-7.7-0.7-8.2-0.3c0,0,3.2,1,4.2,2.4
					C81.8,33.3,82.4,36.2,82.4,36.2"/>
				<path fill="#DD708B" d="M76.3,76.5v1.3c0,2.4-2.1,3.6-4.7,4.3v-4C73.2,77.5,74.8,77,76.3,76.5"/>
				<path fill="#DD708B" d="M30.1,79.7c2,0.3,4.1,0.5,6.2,0.6l-0.1,0.9c0,0.8-0.6,1.4-1.4,1.4c0,0-1.2,0.1-2.9,0.1
					c-0.7,0-1.4,0-2.2-0.1L30.1,79.7z"/>
				<path fill="#F47893" d="M90.3,40c-5.2-12.1-20.8-19-39.1-19C32,21,16,26.8,11.5,44.4c-0.4-0.7-1.2-0.9-1.9-0.5l-3.1,1.7
					C6,45.9,5.7,46.5,5.8,47l-0.2-0.4c-0.2-0.4-0.6-0.5-1-0.3L3,47.1c-0.4,0.2-0.5,0.6-0.3,1L4,50.8c0.2,0.4,0.6,0.5,1,0.3l1.6-0.8
					c0.3-0.2,0.5-0.5,0.4-0.9l1.8,3.4c0.3,0.6,1,0.9,1.6,0.7c0,0.6,0,1.1,0,1.7c0,5.2,0.5,11.6,3.5,16v12.2c0,6.1,13.9,4.8,13.9,4.8
					c0.8,0,1.4-0.6,1.4-1.4l1-7.2c6.4,1,13.7,0.9,21.1,0.9c1.1,0,2.1,0,3.2-0.1c0.5,4.1,1.5,7.8,3.3,7.8c0,0,13.9,1.3,13.9-4.8V78
					c3.6-1,6.9-2.2,9.5-3.8c9.1-5.5,11.1-14.1,11.1-23.3C92.2,47.8,91.5,42.8,90.3,40L42.5,0"/>
				<path fill="#C66B81" d="M64.1,40.9c0,0-3.8-7.2-2.7-10.1c1.1-2.9,11-1.1,11.6-0.4L64.1,40.9z"/>
				<path fill="#F47893" d="M65.5,40.9c0,0-3.8-7.2-2.7-10.1c1.1-2.9,11-1.1,11.6-0.4L65.5,40.9z"/>
				<path fill="#C66B81" d="M66.5,39.1c0,0-2.7-5.1-1.9-7.1c0.8-2.1,7.7-0.7,8.2-0.3c0,0-3.2,1-4.2,2.4
					C67.1,36.3,66.5,39.1,66.5,39.1"/>
				<path fill="#C66B81" d="M80.5,45.3c0,2.9-1.1,5.3-2.4,5.3c-1.3,0-2.4-2.4-2.4-5.3c0-2.9,1.1-5.3,2.4-5.3
					C79.4,40,80.5,42.4,80.5,45.3"/>
				<path fill="#F490A7" d="M50.2,21.7c1.2,0,2.3,0,3.5,0.1c1.3,0.1,2.6,0.2,3.8,0.4c1.3,0.2,2.5,0.4,3.7,0.6
					c0.3,0.1,0.6,0.1,0.9,0.2c0.3,0.1,0.6,0.1,0.9,0.2c0.3,0.1,0.6,0.2,0.9,0.2c0.3,0.1,0.6,0.1,0.9,0.2c2.3,0.7,4.6,1.5,6.6,2.4
					s3.9,2,5.5,3c1.6,1.1,3,2.1,4.2,3.2c0.3,0.3,0.6,0.5,0.8,0.8c0.1,0.1,0.3,0.2,0.4,0.4c0.1,0.1,0.2,0.2,0.4,0.4
					c0.2,0.2,0.5,0.5,0.7,0.7c0.2,0.2,0.4,0.4,0.6,0.7c0.4,0.4,0.7,0.8,1,1.1c0.1,0.2,0.3,0.3,0.4,0.5c0.1,0.1,0.2,0.3,0.3,0.4
					c0.2,0.2,0.3,0.4,0.4,0.5c0.1,0.1,0.1,0.2,0.1,0.2s-0.1,0-0.2-0.1c-0.1-0.1-0.3-0.2-0.6-0.4c-0.1-0.1-0.3-0.2-0.4-0.3
					c-0.1-0.1-0.3-0.2-0.5-0.3c-0.4-0.2-0.7-0.5-1.2-0.8c-0.2-0.1-0.5-0.3-0.7-0.5c-0.3-0.2-0.5-0.3-0.8-0.5
					c-0.1-0.1-0.3-0.2-0.4-0.3c-0.1-0.1-0.3-0.2-0.4-0.3c-0.3-0.2-0.6-0.4-0.9-0.5c-0.3-0.2-0.7-0.4-1-0.6c-0.4-0.2-0.7-0.4-1.1-0.6
					c-0.7-0.4-1.5-0.7-2.4-1.1c-0.5-0.2-1.1-0.5-1.7-0.7l0.5-0.6c-0.3-0.3-2.8-0.9-5.4-1.1c-1.6-0.5-3.4-0.9-5.2-1.3
					c-2.2-0.4-4.5-0.8-6.8-1c-0.3,0-0.6-0.1-0.9-0.1c-0.3,0-0.6-0.1-0.9-0.1c-0.6,0-1.2-0.1-1.8-0.1c-0.6,0-1.2,0-1.8-0.1
					c-0.2,0-0.4,0-0.5,0l0,0c-0.1,0-0.2,0-0.3,0c-0.2,0-0.3,0-0.5,0c-0.1,0-0.3,0-0.4,0H49c-0.3,0-0.6,0-0.9,0
					c-0.6,0-1.2,0.1-1.8,0.1c-1.2,0.1-2.4,0.2-3.5,0.3c-1.2,0.1-2.3,0.3-3.5,0.5c-1.1,0.2-2.3,0.4-3.4,0.6c-1.1,0.2-2.2,0.5-3.2,0.8
					c-1,0.3-2,0.6-3,0.9c-1,0.3-1.9,0.7-2.8,1.1c-0.5,0.2-0.9,0.4-1.3,0.6c-0.2,0.1-0.4,0.2-0.6,0.3c-0.1,0.1-0.2,0.1-0.3,0.1
					c-0.1,0.1-0.2,0.1-0.3,0.2c-0.2,0.1-0.4,0.2-0.6,0.3c-0.2,0.1-0.4,0.2-0.6,0.3c-0.1,0.1-0.2,0.1-0.3,0.2
					c-0.1,0.1-0.2,0.1-0.3,0.2c-0.2,0.1-0.4,0.2-0.5,0.3c-0.2,0.1-0.3,0.2-0.5,0.3c-0.2,0.1-0.3,0.2-0.5,0.3
					c-0.3,0.2-0.6,0.4-0.9,0.7c-1.2,0.9-2.1,1.8-2.8,2.6c-0.3,0.4-0.6,0.8-0.9,1.1c-0.1,0.1-0.1,0.2-0.2,0.2
					c-0.1,0.1-0.1,0.2-0.2,0.2c-0.1,0.1-0.2,0.3-0.3,0.4c-0.2,0.3-0.3,0.5-0.3,0.6c-0.1,0.1-0.1,0.2-0.1,0.2s0-0.1,0-0.2
					c0-0.1,0-0.2,0.1-0.3c0-0.1,0-0.2,0.1-0.4c0-0.1,0.1-0.3,0.1-0.5c0-0.1,0.1-0.2,0.1-0.3c0-0.1,0.1-0.2,0.1-0.3
					c0.1-0.4,0.3-0.9,0.6-1.4c0.5-1,1.3-2.2,2.3-3.4c0.5-0.6,1.1-1.2,1.8-1.8c0.3-0.3,0.7-0.6,1-0.9c0.2-0.1,0.4-0.3,0.6-0.4
					c0.2-0.1,0.4-0.3,0.6-0.4c0.1-0.1,0.2-0.1,0.3-0.2s0.2-0.1,0.3-0.2c0.2-0.1,0.4-0.3,0.6-0.4c0.4-0.3,0.9-0.6,1.3-0.8
					c0.2-0.1,0.5-0.3,0.7-0.4s0.5-0.3,0.7-0.4c0.2-0.1,0.5-0.3,0.7-0.4c0.2-0.1,0.5-0.3,0.7-0.4c0.3-0.1,0.5-0.2,0.8-0.4
					c0.3-0.1,0.5-0.2,0.8-0.3c0.5-0.2,1.1-0.4,1.6-0.7c0.3-0.1,0.6-0.2,0.8-0.3c0.1-0.1,0.3-0.1,0.4-0.2c0.1,0,0.3-0.1,0.4-0.1
					c0.3-0.1,0.6-0.2,0.9-0.3s0.6-0.2,0.9-0.3c0.3-0.1,0.6-0.2,0.9-0.3c0.3-0.1,0.6-0.2,0.9-0.2c0.6-0.1,1.2-0.3,1.8-0.4
					c0.6-0.1,1.2-0.3,1.9-0.4c0.3-0.1,0.6-0.1,0.9-0.2c0.3-0.1,0.6-0.1,0.9-0.1s0.6-0.1,0.9-0.1c0.3,0,0.6-0.1,1-0.1
					c0.6-0.1,1.3-0.1,1.9-0.2c1.3-0.1,2.6-0.2,3.9-0.2C49.9,21.7,50.1,21.7,50.2,21.7"/>
				<path fill="#F490A7" d="M69,29.2c2.6,0.2,5.1,0.8,5.4,1.1l-0.5,0.6c-1.2-0.5-2.5-0.9-3.8-1.3C69.7,29.4,69.4,29.3,69,29.2"/>
				<polyline fill="#F4DFE5" points="10.2,53.5 10.2,53.6 10.2,53.5 				"/>
				<path fill="#EA7590" d="M10.2,53.6C10.7,55.3,24,74,69.8,74c3.9,0,8-0.1,12.3-0.4c-2.5,1.5-6.9,3.4-10.5,4.4
					c0,0-19.4,2.7-20.4,2.7s-2,0-3.1,0c-6.4,0-12.6-0.1-18.1-0.9l-16.3-8.6c-3-4.4-3.5-10.8-3.5-16C10.2,54.7,10.2,54.2,10.2,53.6"
					/>
				<path fill="#C66B81" d="M91.4,45.3c0,2.9-1.1,5.3-2.4,5.3s-2.4-2.4-2.4-5.3c0-2.9,1.1-5.3,2.4-5.3S91.4,42.4,91.4,45.3"/>
				<path fill="#F47893" d="M71.4,71.7c5.9,0.3,25,3.5,27.6-6.6c3.1-17.3-4.2-15.9-4.2-15.9h-7.6L85.8,48L71.4,71.7z"/>
				<path fill="#C66B81" d="M71.4,71.2c3.5,0.2,6.9,0.6,10.3,0.7c4,0.1,8.4,0,12.1-1.8c1.6-0.7,3-1.8,3.9-3.4c0.6-1,0.8-2.1,1-3.3
					c0.2-1.5,0.4-3,0.5-4.6c0.1-2.7,0.1-6.7-2.2-8.6c0,0-0.3-0.2-0.4-0.3c-0.1,0-0.1-0.1-0.2-0.1c-0.2-0.1-0.1,0-0.2-0.1
					c-0.1-0.1-0.3-0.1-0.4-0.1c-0.1,0-0.1,0-0.2,0s-0.2,0-0.1,0c-0.2,0-0.4,0-0.6,0c-0.3,0,0.2,0-0.2,0h-4.4h-2.5
					c-0.5,0-0.8,0.1-1.2-0.3c-0.4-0.4-0.8-0.7-1.2-1.1c-0.5-0.5,0.2-1.2,0.8-0.8c0.4,0.4,0.9,0.8,1.4,1.2c-0.1-0.1-0.3-0.1-0.4-0.2
					h4h2.6h0.7c0.1,0,0.3,0,0.1,0c1.1-0.2,2.3,0.3,3.1,1c2.3,1.9,2.5,5.7,2.5,8.5c0,1.4-0.2,2.9-0.3,4.3c-0.2,1.3-0.3,2.7-0.8,4
					c-0.7,1.7-1.9,3-3.5,4c-3.4,2.2-7.8,2.5-11.7,2.6c-3.8,0.1-7.5-0.3-11.3-0.6c-0.4,0-0.8-0.1-1.3-0.1
					C70.7,72.2,70.7,71.1,71.4,71.2"/>
				<path fill="#C66B81" d="M95.7,60.6c0,1.7-0.6,3.1-1.4,3.1c-0.8,0-1.4-1.4-1.4-3.1c0-1.7,0.6-3.1,1.4-3.1
					C95.1,57.5,95.7,58.9,95.7,60.6"/>
				<path fill="#C66B81" d="M99.2,59.2c0,1.7-0.6,3.1-1.4,3.1c-0.8,0-1.4-1.4-1.4-3.1s0.6-3.1,1.4-3.1
					C98.6,56.1,99.2,57.5,99.2,59.2"/>
				<path fill="#C66B81" d="M74.1,66.4c0.1,1.2-0.2,2.5-0.7,3.5c-1.3,2.5-4.4,3.1-7,3.1c0,0-0.5,0-0.2-0.1c0.3-0.1,0.5-0.1,0.8-0.1
					c2.3,0,4.5-1.1,5.4-3.3c0.4-0.9,0.6-2,0.5-3C72.9,66.4,74.1,66.2,74.1,66.4"/>
				<path fill="#C66B81" d="M96.3,50.2c-1-0.3-2.1-0.3-3.1-0.1c-2.5,0.6-3.1,3.5-3.3,5.8c0,0.3-1,0.7-1,0.5c0.1-1.7,0.4-3.4,1.5-4.7
					c0.7-1,1.8-1.7,3-2.1c1.2-0.4,2.7-0.4,3.9-0.1C97.3,49.6,96.6,50.3,96.3,50.2"/>
				<path fill="#DD708B" d="M10.2,43.8c0.7,0.2,1.2,0.7,1.2,0.7s-1.3,3.6-1.2,9.1C9,53.2,8.7,49.5,10.2,43.8"/>
				<path fill="#C66B81" d="M26.7,30.9c0,0,14.4-5.4,27-3.5c2-2.4,5.2-3.7,5.2-3.7S47.8,21.1,31.8,26C30.7,26.1,26.7,30.9,26.7,30.9
					"/>
				<path fill="#D0C8BE" d="M35,17.2c-0.2-3.2,2.9-6.1,7-6.4s7.6,2.1,7.8,5.3s-2.9,6.1-7,6.4S35.2,20.4,35,17.2"/>
				<path fill="#638E63" d="M42.8,22.5c4.1-0.3,7.2-3.1,7-6.4c-0.2-3.2-3.7-5.6-7.8-5.3s-7.2,3.1-7,6.4
					C35.2,20.4,38.7,22.8,42.8,22.5L42.8,22.5z M51.5,25.8c0,0-4.9-0.3-8.4,0.1c-3.6,0.4-7.8,1.1-7.8,1.1L33.5,1.2l16.2-1.1
					L51.5,25.8z"/>
				<path fill="#638E63" d="M36.1,17.7L36,16.6l1.5-0.1c0-0.8,0.1-1.7,0.6-2.6l1.5,0.4c-0.5,1.2-0.5,1.8-0.4,2.3
					c0.1,1,0.5,1.5,1.3,1.4c2-0.1,1-4.2,4-4.4c1.4-0.1,2.6,0.6,3,2.2l1.4-0.1l0.1,1.1l-1.3,0.1c0,0.5-0.1,1.4-0.4,2.1l-1.5-0.4
					c0.2-0.5,0.3-1.2,0.3-1.8C46,16,45.7,15.5,45,15.5c-1.7,0.1-0.8,4.3-4.1,4.5c-1.5,0.1-2.7-0.7-3.1-2.4L36.1,17.7z"/>
				<path fill="#F490A7" d="M84.5,49.7c0.1,0,0.1,0,0.2,0L84,50.8c-0.6,0-1.2,0.1-1.7,0.3c-0.1,0-0.1,0-0.2,0
					c-0.2,0-0.4-0.1-0.5-0.4s0.1-0.6,0.3-0.7C82.8,49.8,83.6,49.7,84.5,49.7"/>
				<path fill="#F490A7" d="M84.7,49.7c1.5,0,3,0.3,4.4,0.7c0.3,0.1,0.4,0.4,0.4,0.7c-0.1,0.2-0.3,0.4-0.5,0.4h-0.1
					c-1.4-0.4-3-0.7-4.4-0.7l0,0l0,0c-0.1,0-0.3,0-0.4,0L84.7,49.7z"/>
			</g>
			<g transform="translate(532.000000, 51.000000)">
				<path fill="#E1E1E1" d="M48.6,88.4c26.8,0,48.6-2,48.6-4.5s-21.7-4.5-48.6-4.5c-26.8,0-48.6,2-48.6,4.5
					C0.1,86.4,21.8,88.4,48.6,88.4"/>
				<path fill="#F47893" d="M64.2,84.1c0,0,13.9,1.3,13.9-4.8V65.6c0-0.8-0.6-1.4-1.4-1.4h-15c-0.8,0-1.4,0.6-1.4,1.4
					C60.2,65.6,60.2,84.1,64.2,84.1"/>
				<path fill="#F47893" d="M37.9,82.8c0,0.8-0.6,1.4-1.4,1.4c0,0-13.9,1.3-13.9-4.8V65.7c0-0.8,0.6-1.4,1.4-1.4h15
					c0.8,0,1.4,0.6,1.4,1.4L37.9,82.8z"/>
				<path fill="#F47893" d="M74.5,28.8c0,0,7.2-3.8,10.1-2.7s1.1,11,0.4,11.6L74.5,28.8z"/>
				<path fill="#FF7AAA" d="M74.2,28.3c0,0,1.4-0.7,3.2-1.5c0.9-0.4,1.9-0.7,2.9-1c1-0.3,2-0.5,3-0.5c0.5,0,1.1,0.1,1.5,0.2
					c0.2,0.1,0.4,0.2,0.6,0.3c0.3,0.2,0.5,0.6,0.7,0.9c0.3,0.5,0.4,1.1,0.5,1.8s0.1,1.4,0.1,2.1c0,1.6-0.2,3.3-0.5,4.6
					c-0.1,0.7-0.3,1.3-0.4,1.7c-0.1,0.2-0.1,0.4-0.2,0.6c0,0.1-0.1,0.2-0.1,0.2c0,0.1-0.1,0.1-0.2,0.2L84.5,37l0.2,0.2L84.5,37l0,0
					l0.2,0.2L84.5,37h0.1h-0.1l0,0h0.1h-0.1c0,0,0,0,0-0.1c0-0.1,0.1-0.2,0.1-0.4c0.1-0.3,0.2-0.7,0.3-1.1c0.3-1.4,0.6-3.3,0.6-5.1
					c0-0.5,0-1-0.1-1.5c-0.1-0.7-0.2-1.3-0.4-1.7c-0.1-0.2-0.2-0.4-0.3-0.5c-0.1-0.1-0.2-0.2-0.4-0.3c-0.3-0.1-0.7-0.2-1.1-0.2
					c-0.8,0-1.7,0.2-2.6,0.4c-1.4,0.4-2.9,1-4,1.5c-0.6,0.3-1,0.5-1.4,0.6c-0.2,0.1-0.3,0.1-0.4,0.2c0,0-0.1,0-0.1,0.1l0,0l0,0
					L74.2,28.3z"/>
				<path fill="#C66B81" d="M82.4,36.2c0,0,2.7-5.1,1.9-7.1c-0.8-2.1-7.7-0.7-8.2-0.3c0,0,3.2,1,4.2,2.4
					C81.8,33.3,82.4,36.2,82.4,36.2"/>
				<path fill="#DD708B" d="M76.3,76.5v1.3c0,2.4-2.1,3.6-4.7,4.3v-4C73.2,77.5,74.8,77,76.3,76.5"/>
				<path fill="#DD708B" d="M30.1,79.7c2,0.3,4.1,0.5,6.2,0.6l-0.1,0.9c0,0.8-0.6,1.4-1.4,1.4c0,0-1.2,0.1-2.9,0.1
					c-0.7,0-1.4,0-2.2-0.1L30.1,79.7z"/>
				<path fill="#F47893" d="M90.3,40c-5.2-12.1-20.8-19-39.1-19C32,21,16,26.8,11.5,44.4c-0.4-0.7-1.2-0.9-1.9-0.5l-3.1,1.7
					C6,45.9,5.7,46.5,5.8,47l-0.2-0.4c-0.2-0.4-0.6-0.5-1-0.3L3,47.1c-0.4,0.2-0.5,0.6-0.3,1L4,50.8c0.2,0.4,0.6,0.5,1,0.3l1.6-0.8
					c0.3-0.2,0.5-0.5,0.4-0.9l1.8,3.4c0.3,0.6,1,0.9,1.6,0.7c0,0.6,0,1.1,0,1.7c0,5.2,0.5,11.6,3.5,16v12.2c0,6.1,13.9,4.8,13.9,4.8
					c0.8,0,1.4-0.6,1.4-1.4l1-7.2c6.4,1,13.7,0.9,21.1,0.9c1.1,0,2.1,0,3.2-0.1c0.5,4.1,1.5,7.8,3.3,7.8c0,0,13.9,1.3,13.9-4.8V78
					c3.6-1,6.9-2.2,9.5-3.8c9.1-5.5,11.1-14.1,11.1-23.3C92.2,47.8,91.5,42.8,90.3,40L42.5,0"/>
				<path fill="#C66B81" d="M64.1,40.9c0,0-3.8-7.2-2.7-10.1c1.1-2.9,11-1.1,11.6-0.4L64.1,40.9z"/>
				<path fill="#F47893" d="M65.5,40.9c0,0-3.8-7.2-2.7-10.1c1.1-2.9,11-1.1,11.6-0.4L65.5,40.9z"/>
				<path fill="#C66B81" d="M66.5,39.1c0,0-2.7-5.1-1.9-7.1c0.8-2.1,7.7-0.7,8.2-0.3c0,0-3.2,1-4.2,2.4
					C67.1,36.3,66.5,39.1,66.5,39.1"/>
				<path fill="#C66B81" d="M80.5,45.3c0,2.9-1.1,5.3-2.4,5.3c-1.3,0-2.4-2.4-2.4-5.3c0-2.9,1.1-5.3,2.4-5.3
					C79.4,40,80.5,42.4,80.5,45.3"/>
				<path fill="#F490A7" d="M50.2,21.7c1.2,0,2.3,0,3.5,0.1c1.3,0.1,2.6,0.2,3.8,0.4c1.3,0.2,2.5,0.4,3.7,0.6
					c0.3,0.1,0.6,0.1,0.9,0.2c0.3,0.1,0.6,0.1,0.9,0.2c0.3,0.1,0.6,0.2,0.9,0.2c0.3,0.1,0.6,0.1,0.9,0.2c2.3,0.7,4.6,1.5,6.6,2.4
					s3.9,2,5.5,3c1.6,1.1,3,2.1,4.2,3.2c0.3,0.3,0.6,0.5,0.8,0.8c0.1,0.1,0.3,0.2,0.4,0.4c0.1,0.1,0.2,0.2,0.4,0.4
					c0.2,0.2,0.5,0.5,0.7,0.7c0.2,0.2,0.4,0.4,0.6,0.7c0.4,0.4,0.7,0.8,1,1.1c0.1,0.2,0.3,0.3,0.4,0.5c0.1,0.1,0.2,0.3,0.3,0.4
					c0.2,0.2,0.3,0.4,0.4,0.5c0.1,0.1,0.1,0.2,0.1,0.2s-0.1,0-0.2-0.1c-0.1-0.1-0.3-0.2-0.6-0.4c-0.1-0.1-0.3-0.2-0.4-0.3
					c-0.1-0.1-0.3-0.2-0.5-0.3c-0.4-0.2-0.7-0.5-1.2-0.8c-0.2-0.1-0.5-0.3-0.7-0.5c-0.3-0.2-0.5-0.3-0.8-0.5
					c-0.1-0.1-0.3-0.2-0.4-0.3c-0.1-0.1-0.3-0.2-0.4-0.3c-0.3-0.2-0.6-0.4-0.9-0.5c-0.3-0.2-0.7-0.4-1-0.6c-0.4-0.2-0.7-0.4-1.1-0.6
					c-0.7-0.4-1.5-0.7-2.4-1.1c-0.5-0.2-1.1-0.5-1.7-0.7l0.5-0.6c-0.3-0.3-2.8-0.9-5.4-1.1c-1.6-0.5-3.4-0.9-5.2-1.3
					c-2.2-0.4-4.5-0.8-6.8-1c-0.3,0-0.6-0.1-0.9-0.1c-0.3,0-0.6-0.1-0.9-0.1c-0.6,0-1.2-0.1-1.8-0.1c-0.6,0-1.2,0-1.8-0.1
					c-0.2,0-0.4,0-0.5,0l0,0c-0.1,0-0.2,0-0.3,0c-0.2,0-0.3,0-0.5,0c-0.1,0-0.3,0-0.4,0H49c-0.3,0-0.6,0-0.9,0
					c-0.6,0-1.2,0.1-1.8,0.1c-1.2,0.1-2.4,0.2-3.5,0.3c-1.2,0.1-2.3,0.3-3.5,0.5c-1.1,0.2-2.3,0.4-3.4,0.6c-1.1,0.2-2.2,0.5-3.2,0.8
					c-1,0.3-2,0.6-3,0.9c-1,0.3-1.9,0.7-2.8,1.1c-0.5,0.2-0.9,0.4-1.3,0.6c-0.2,0.1-0.4,0.2-0.6,0.3c-0.1,0.1-0.2,0.1-0.3,0.1
					c-0.1,0.1-0.2,0.1-0.3,0.2c-0.2,0.1-0.4,0.2-0.6,0.3c-0.2,0.1-0.4,0.2-0.6,0.3c-0.1,0.1-0.2,0.1-0.3,0.2
					c-0.1,0.1-0.2,0.1-0.3,0.2c-0.2,0.1-0.4,0.2-0.5,0.3c-0.2,0.1-0.3,0.2-0.5,0.3c-0.2,0.1-0.3,0.2-0.5,0.3
					c-0.3,0.2-0.6,0.4-0.9,0.7c-1.2,0.9-2.1,1.8-2.8,2.6c-0.3,0.4-0.6,0.8-0.9,1.1c-0.1,0.1-0.1,0.2-0.2,0.2
					c-0.1,0.1-0.1,0.2-0.2,0.2c-0.1,0.1-0.2,0.3-0.3,0.4c-0.2,0.3-0.3,0.5-0.3,0.6c-0.1,0.1-0.1,0.2-0.1,0.2s0-0.1,0-0.2
					c0-0.1,0-0.2,0.1-0.3c0-0.1,0-0.2,0.1-0.4c0-0.1,0.1-0.3,0.1-0.5c0-0.1,0.1-0.2,0.1-0.3c0-0.1,0.1-0.2,0.1-0.3
					c0.1-0.4,0.3-0.9,0.6-1.4c0.5-1,1.3-2.2,2.3-3.4c0.5-0.6,1.1-1.2,1.8-1.8c0.3-0.3,0.7-0.6,1-0.9c0.2-0.1,0.4-0.3,0.6-0.4
					c0.2-0.1,0.4-0.3,0.6-0.4c0.1-0.1,0.2-0.1,0.3-0.2s0.2-0.1,0.3-0.2c0.2-0.1,0.4-0.3,0.6-0.4c0.4-0.3,0.9-0.6,1.3-0.8
					c0.2-0.1,0.5-0.3,0.7-0.4s0.5-0.3,0.7-0.4c0.2-0.1,0.5-0.3,0.7-0.4c0.2-0.1,0.5-0.3,0.7-0.4c0.3-0.1,0.5-0.2,0.8-0.4
					c0.3-0.1,0.5-0.2,0.8-0.3c0.5-0.2,1.1-0.4,1.6-0.7c0.3-0.1,0.6-0.2,0.8-0.3c0.1-0.1,0.3-0.1,0.4-0.2c0.1,0,0.3-0.1,0.4-0.1
					c0.3-0.1,0.6-0.2,0.9-0.3s0.6-0.2,0.9-0.3c0.3-0.1,0.6-0.2,0.9-0.3c0.3-0.1,0.6-0.2,0.9-0.2c0.6-0.1,1.2-0.3,1.8-0.4
					c0.6-0.1,1.2-0.3,1.9-0.4c0.3-0.1,0.6-0.1,0.9-0.2c0.3-0.1,0.6-0.1,0.9-0.1s0.6-0.1,0.9-0.1c0.3,0,0.6-0.1,1-0.1
					c0.6-0.1,1.3-0.1,1.9-0.2c1.3-0.1,2.6-0.2,3.9-0.2C49.9,21.7,50.1,21.7,50.2,21.7"/>
				<path fill="#F490A7" d="M69,29.2c2.6,0.2,5.1,0.8,5.4,1.1l-0.5,0.6c-1.2-0.5-2.5-0.9-3.8-1.3C69.7,29.4,69.4,29.3,69,29.2"/>
				<polyline fill="#F4DFE5" points="10.2,53.5 10.2,53.6 10.2,53.5 				"/>
				<path fill="#EA7590" d="M10.2,53.6C10.7,55.3,24,74,69.8,74c3.9,0,8-0.1,12.3-0.4c-2.5,1.5-6.9,3.4-10.5,4.4
					c0,0-19.4,2.7-20.4,2.7s-2,0-3.1,0c-6.4,0-12.6-0.1-18.1-0.9l-16.3-8.6c-3-4.4-3.5-10.8-3.5-16C10.2,54.7,10.2,54.2,10.2,53.6"
					/>
				<path fill="#C66B81" d="M91.4,45.3c0,2.9-1.1,5.3-2.4,5.3s-2.4-2.4-2.4-5.3c0-2.9,1.1-5.3,2.4-5.3S91.4,42.4,91.4,45.3"/>
				<path fill="#F47893" d="M71.4,71.7c5.9,0.3,25,3.5,27.6-6.6c3.1-17.3-4.2-15.9-4.2-15.9h-7.6L85.8,48L71.4,71.7z"/>
				<path fill="#C66B81" d="M71.4,71.2c3.5,0.2,6.9,0.6,10.3,0.7c4,0.1,8.4,0,12.1-1.8c1.6-0.7,3-1.8,3.9-3.4c0.6-1,0.8-2.1,1-3.3
					c0.2-1.5,0.4-3,0.5-4.6c0.1-2.7,0.1-6.7-2.2-8.6c0,0-0.3-0.2-0.4-0.3c-0.1,0-0.1-0.1-0.2-0.1c-0.2-0.1-0.1,0-0.2-0.1
					c-0.1-0.1-0.3-0.1-0.4-0.1c-0.1,0-0.1,0-0.2,0s-0.2,0-0.1,0c-0.2,0-0.4,0-0.6,0c-0.3,0,0.2,0-0.2,0h-4.4h-2.5
					c-0.5,0-0.8,0.1-1.2-0.3c-0.4-0.4-0.8-0.7-1.2-1.1c-0.5-0.5,0.2-1.2,0.8-0.8c0.4,0.4,0.9,0.8,1.4,1.2c-0.1-0.1-0.3-0.1-0.4-0.2
					h4h2.6h0.7c0.1,0,0.3,0,0.1,0c1.1-0.2,2.3,0.3,3.1,1c2.3,1.9,2.5,5.7,2.5,8.5c0,1.4-0.2,2.9-0.3,4.3c-0.2,1.3-0.3,2.7-0.8,4
					c-0.7,1.7-1.9,3-3.5,4c-3.4,2.2-7.8,2.5-11.7,2.6c-3.8,0.1-7.5-0.3-11.3-0.6c-0.4,0-0.8-0.1-1.3-0.1
					C70.7,72.2,70.7,71.1,71.4,71.2"/>
				<path fill="#C66B81" d="M95.7,60.6c0,1.7-0.6,3.1-1.4,3.1c-0.8,0-1.4-1.4-1.4-3.1c0-1.7,0.6-3.1,1.4-3.1
					C95.1,57.5,95.7,58.9,95.7,60.6"/>
				<path fill="#C66B81" d="M99.2,59.2c0,1.7-0.6,3.1-1.4,3.1c-0.8,0-1.4-1.4-1.4-3.1s0.6-3.1,1.4-3.1
					C98.6,56.1,99.2,57.5,99.2,59.2"/>
				<path fill="#C66B81" d="M74.1,66.4c0.1,1.2-0.2,2.5-0.7,3.5c-1.3,2.5-4.4,3.1-7,3.1c0,0-0.5,0-0.2-0.1c0.3-0.1,0.5-0.1,0.8-0.1
					c2.3,0,4.5-1.1,5.4-3.3c0.4-0.9,0.6-2,0.5-3C72.9,66.4,74.1,66.2,74.1,66.4"/>
				<path fill="#C66B81" d="M96.3,50.2c-1-0.3-2.1-0.3-3.1-0.1c-2.5,0.6-3.1,3.5-3.3,5.8c0,0.3-1,0.7-1,0.5c0.1-1.7,0.4-3.4,1.5-4.7
					c0.7-1,1.8-1.7,3-2.1c1.2-0.4,2.7-0.4,3.9-0.1C97.3,49.6,96.6,50.3,96.3,50.2"/>
				<path fill="#DD708B" d="M10.2,43.8c0.7,0.2,1.2,0.7,1.2,0.7s-1.3,3.6-1.2,9.1C9,53.2,8.7,49.5,10.2,43.8"/>
				<path fill="#C66B81" d="M26.7,30.9c0,0,14.4-5.4,27-3.5c2-2.4,5.2-3.7,5.2-3.7S47.8,21.1,31.8,26C30.7,26.1,26.7,30.9,26.7,30.9
					"/>
				<path fill="#D0C8BE" d="M35,17.2c-0.2-3.2,2.9-6.1,7-6.4s7.6,2.1,7.8,5.3s-2.9,6.1-7,6.4S35.2,20.4,35,17.2"/>
				<path fill="#638E63" d="M42.8,22.5c4.1-0.3,7.2-3.1,7-6.4c-0.2-3.2-3.7-5.6-7.8-5.3s-7.2,3.1-7,6.4
					C35.2,20.4,38.7,22.8,42.8,22.5L42.8,22.5z M51.5,25.8c0,0-4.9-0.3-8.4,0.1c-3.6,0.4-7.8,1.1-7.8,1.1L33.5,1.2l16.2-1.1
					L51.5,25.8z"/>
				<path fill="#638E63" d="M36.1,17.7L36,16.6l1.5-0.1c0-0.8,0.1-1.7,0.6-2.6l1.5,0.4c-0.5,1.2-0.5,1.8-0.4,2.3
					c0.1,1,0.5,1.5,1.3,1.4c2-0.1,1-4.2,4-4.4c1.4-0.1,2.6,0.6,3,2.2l1.4-0.1l0.1,1.1l-1.3,0.1c0,0.5-0.1,1.4-0.4,2.1l-1.5-0.4
					c0.2-0.5,0.3-1.2,0.3-1.8C46,16,45.7,15.5,45,15.5c-1.7,0.1-0.8,4.3-4.1,4.5c-1.5,0.1-2.7-0.7-3.1-2.4L36.1,17.7z"/>
				<path fill="#F490A7" d="M84.5,49.7c0.1,0,0.1,0,0.2,0L84,50.8c-0.6,0-1.2,0.1-1.7,0.3c-0.1,0-0.1,0-0.2,0
					c-0.2,0-0.4-0.1-0.5-0.4s0.1-0.6,0.3-0.7C82.8,49.8,83.6,49.7,84.5,49.7"/>
				<path fill="#F490A7" d="M84.7,49.7c1.5,0,3,0.3,4.4,0.7c0.3,0.1,0.4,0.4,0.4,0.7c-0.1,0.2-0.3,0.4-0.5,0.4h-0.1
					c-1.4-0.4-3-0.7-4.4-0.7l0,0l0,0c-0.1,0-0.3,0-0.4,0L84.7,49.7z"/>
			</g>
		</g>
	</g>
</g>
</svg>
